<?xml version="1.0" standalone="no"?><!DOCTYPE svg PUBLIC "-//W3C//DTD SVG 1.1//EN" "http://www.w3.org/Graphics/SVG/1.1/DTD/svg11.dtd"><svg t="1600398630235" class="icon" viewBox="0 0 1024 1024" version="1.1" xmlns="http://www.w3.org/2000/svg" p-id="9416" xmlns:xlink="http://www.w3.org/1999/xlink" width="16" height="16"><defs><style type="text/css"></style></defs><path d="M160.96 896a32 32 0 0 1-32-32V342.656a32 32 0 0 1 32-32h515.648a32 32 0 0 1 32 32V864a32 32 0 0 1-32 32H160.96z m32-521.344V832h451.648V374.656H192.96z m188.224-182.72v56.896a32 32 0 0 1-64 0V159.872a32 32 0 0 1 32-32h515.84a32 32 0 0 1 32 32l-0.384 521.28a32 32 0 0 1-32 32h-94.016a32 32 0 1 1 0-64h62.08l0.32-457.28h-451.84z" p-id="9417"></path></svg>