<?xml version="1.0" standalone="no"?><!DOCTYPE svg PUBLIC "-//W3C//DTD SVG 1.1//EN" "http://www.w3.org/Graphics/SVG/1.1/DTD/svg11.dtd"><svg t="1600398700161" class="icon" viewBox="0 0 1024 1024" version="1.1" xmlns="http://www.w3.org/2000/svg" p-id="9550" xmlns:xlink="http://www.w3.org/1999/xlink" width="16" height="16"><defs><style type="text/css"></style></defs><path d="M735.104 316.736H288.896v514.944h446.208V316.736z m64 0v546.944a32 32 0 0 1-32 32H256.896a32 32 0 0 1-32-32V316.8H160a32 32 0 0 1 0-64h704a32 32 0 0 1 0 64h-64.896zM385.28 461.632a32 32 0 1 1 64 0v211.264a32 32 0 1 1-64 0V461.632z m178.432 0a32 32 0 1 1 64 0v211.264a32 32 0 1 1-64 0V461.632zM404.544 191.744a32 32 0 0 1 0-64h211.2a32 32 0 0 1 0 64h-211.2z" p-id="9551"></path></svg>