<?xml version="1.0" standalone="no"?><!DOCTYPE svg PUBLIC "-//W3C//DTD SVG 1.1//EN" "http://www.w3.org/Graphics/SVG/1.1/DTD/svg11.dtd"><svg t="1591931797609" class="icon" viewBox="0 0 1024 1024" version="1.1" xmlns="http://www.w3.org/2000/svg" p-id="3420" xmlns:xlink="http://www.w3.org/1999/xlink" width="16" height="16"><defs><style type="text/css"></style></defs><path d="M398.222222 853.333333h455.111111v-284.444444h-170.666666v113.777778a56.888889 56.888889 0 0 1-56.888889 56.888889H398.222222v113.777777zM170.666667 341.333333h455.111111a56.888889 56.888889 0 0 1 56.888889 56.888889v113.777778h170.666666V227.555556H170.666667v113.777777z m227.555555 56.888889v284.444445h227.555556V398.222222H398.222222zM170.666667 170.666667h682.666666a56.888889 56.888889 0 0 1 56.888889 56.888889v625.777777a56.888889 56.888889 0 0 1-56.888889 56.888889H170.666667a56.888889 56.888889 0 0 1-56.888889-56.888889V227.555556a56.888889 56.888889 0 0 1 56.888889-56.888889z m0 227.555555v455.111111h170.666666V398.222222H170.666667z m739.555555 0v455.111111a56.888889 56.888889 0 0 1-56.888889 56.888889h-170.666666a56.888889 56.888889 0 0 1-56.888889-56.888889V398.222222H113.777778V227.555556a56.888889 56.888889 0 0 1 56.888889-56.888889h682.666666a56.888889 56.888889 0 0 1 56.888889 56.888889v170.666666z m-227.555555 0v455.111111h170.666666V398.222222h-170.666666zM170.666667 341.333333h682.666666V227.555556H170.666667v113.777777z m227.555555 0h455.111111a56.888889 56.888889 0 0 1 56.888889 56.888889v284.444445a56.888889 56.888889 0 0 1-56.888889 56.888889H398.222222a56.888889 56.888889 0 0 1-56.888889-56.888889V398.222222a56.888889 56.888889 0 0 1 56.888889-56.888889z m0 56.888889v284.444445h455.111111V398.222222H398.222222z m0 0v113.777778h227.555556V398.222222H398.222222zM341.333333 341.333333h341.333334v227.555556H341.333333V341.333333zM170.666667 398.222222v113.777778h170.666666V398.222222H170.666667zM113.777778 341.333333h284.444444v227.555556H113.777778V341.333333z m56.888889 227.555556v113.777778h170.666666v-113.777778H170.666667zM113.777778 512h284.444444v227.555556H113.777778V512z" p-id="3421"></path></svg>